<?xml version="1.0"?>
<svg xmlns="http://www.w3.org/2000/svg" viewBox="0 0 512 512" width="512" height="512"><g id="Flat"><path d="M83.57812,64.84473l-16-8L60.42188,71.15527l8.84472,4.42285-8.543,17.08619L41.23145,63.42578l5.92382-11.84766L32.84473,44.42188l-8,16a7.999,7.999,0,0,0,.499,8.01562L42.12354,93.60791,32,90.2334V80H16V96a7.99987,7.99987,0,0,0,5.4707,7.58984l18.677,6.22559-3.72583,7.45117-8.84376-4.42187-7.15624,14.31054,16,8a7.99449,7.99449,0,0,0,10.73339-3.57715l14-28-2.584-1.29223L64.50195,98.332l-.45581-.68359,9.65894,4.83008,13.45019-26.9004A8.00074,8.00074,0,0,0,83.57812,64.84473Z" style="fill:#fdca77"/><polygon points="72 112 48 112 48 88 72 88 82.833 95.333 72 104 72 112" style="fill:#d6323f"/><path d="M208,104v64l-36.27-29.02A154.50537,154.50537,0,0,0,156.15991,128,159.5568,159.5568,0,0,0,72,104V88l4.07007-.45A285.78333,285.78333,0,0,1,208,104Z" style="fill:#e04446"/><path d="M480,56v9.75391l-18.66553,4.6665L478.65625,44.4375a7.999,7.999,0,0,0,.499-8.01562l-8-16-14.31054,7.15624,5.92382,11.84668L443.27637,68.66357l-8.543-17.08545,8.84472-4.42285-7.15624-14.31054-16,8a7.99972,7.99972,0,0,0-3.57715,10.73339l17.15039,34.29981L444.583,80.5835l.85888,3.43554-2.36865,2.36866,3.94776,3.948.03662.14576.0874-.022,19.19775,19.19776a8.00133,8.00133,0,0,0,9.23535,1.498l16-8-7.15624-14.31054-10.8418,5.42089-8.332-8.33178,24.69238-6.1731A7.99866,7.99866,0,0,0,496,72V56Z" style="fill:#fdca77"/><polygon points="432 88 456 88 456 64 432 64 422.75 71.5 432 80 432 88" style="fill:#d6323f"/><path d="M432,64V80a159.84667,159.84667,0,0,0-99.73,34.98L296,144V80A285.73647,285.73647,0,0,1,427.93018,63.55005Z" style="fill:#e04446"/><path d="M464,471.05566,450.92676,464.519l.39844-1.19409,23.20507-7.73511a7.99809,7.99809,0,0,0,4.625-4.01172l8-16-14.31054-7.15624L466.32617,441.458l-8.67627,2.89209,5.93994-17.81983a8.00185,8.00185,0,0,0-1.93261-8.1875l-8-8-11.31446,11.31446,4.50391,4.5039-8.17139,24.51392-3.7666,1.25537-8.17529-16.3523,8.84472-4.42285-7.15624-14.31054-16,8a7.99991,7.99991,0,0,0-3.57715,10.73242l13.59961,27.20019,8.88916-4.44409-5.71143,11.42163,34.79981,17.40039a8.00049,8.00049,0,0,0,7.15624,0l16-8-7.15624-14.31054Z" style="fill:#fdca77"/><polygon points="424 472 448 472 448 448 424 448 410.5 458.875 424 472" style="fill:#ce2337"/><path d="M424,448v24a222.85705,222.85705,0,0,0-94.9502,4.8L288,488V448a193.32229,193.32229,0,0,1,128.83984-2.39014Z" style="fill:#d6323f"/><path d="M125.05664,453.87012l-13.4668-40.40039A8.00026,8.00026,0,0,0,104,408H88v16H98.23438l3.11669,9.35059L74.5293,424.41016a8.00556,8.00556,0,0,0-8.18653,1.93261l-8,8,11.31446,11.31446,4.5039-4.50391,33.31934,11.106L106.23364,456H72a8.00005,8.00005,0,0,0-6.41406,3.21875l-8,10.7334,12.82812,9.5625L76.01465,472h24.88623l-2.6665,8H88v16h16a8.00026,8.00026,0,0,0,7.58984-5.46973l12-36-.25683-.08545Z" style="fill:#fdca77"/><polygon points="120 464 131.5 450.667 120 440 96 440 96 464 120 464" style="fill:#ce2337"/><path d="M256,440v40l-41.05-11.2A222.39534,222.39534,0,0,0,120,464V440l7.15991-2.39014A193.203,193.203,0,0,1,256,440Z" style="fill:#d6323f"/><path d="M151.53,89.18994A285.082,285.082,0,0,1,208,104v64l-36.27-29.02A154.50537,154.50537,0,0,0,156.15991,128h18.23023a90.19059,90.19059,0,0,1-21.57007-34.93994Z" style="fill:#d6323f"/><path d="M367.8999,66.8999l-8.71972,26.16016c-.64014,1.8999-1.33008,3.77978-2.1001,5.61987A159.07614,159.07614,0,0,0,332.27,114.98L296,144V80a285.58223,285.58223,0,0,1,29.08008-9.16992c-.02,1.56006-.11035,3.12988-.25,4.68994Z" style="fill:#d6323f"/><path d="M288,448v40l41.0498-11.2A221.5573,221.5573,0,0,1,356.52,471.15991,87.574,87.574,0,0,0,373.58008,436.54,192.91338,192.91338,0,0,0,288,448ZM171.92993,428.3999a103.69865,103.69865,0,0,0,17.74,35.07007,222.31005,222.31005,0,0,1,25.28,5.33008L256,480V440A192.92348,192.92348,0,0,0,171.92993,428.3999Z" style="fill:#d6323f"/><path d="M373.58008,436.54A87.574,87.574,0,0,1,356.52,471.15991a221.5573,221.5573,0,0,0-27.47022,5.64014L288,488V448A192.91338,192.91338,0,0,1,373.58008,436.54Z" style="fill:#ce2337"/><path d="M256,440v40l-41.05-11.2a222.31005,222.31005,0,0,0-25.28-5.33008,103.69865,103.69865,0,0,1-17.74-35.07007A192.92348,192.92348,0,0,1,256,440Z" style="fill:#ce2337"/><path d="M376,376l-4.527-22.14861a52.04039,52.04039,0,0,1,4.43015-33.67477l.34624-.6932a52.04033,52.04033,0,0,1,23.4-23.35108h0a94.61161,94.61161,0,0,0,45.73656-49.59557C446.94873,242.62816,448,240,448,240l16.97914,39.618A86.833,86.833,0,0,1,472,313.8231v.51132C472,347.22423,424,392,424,392Z" style="fill:#de5e1d"/><path d="M352.12988,311.54,352,312a44.22965,44.22965,0,0,1-42.50977,32H304l16-32-.0498-.31006C320,304,333.43994,296,336,296,336,296,352,296,352.12988,311.54Z" style="fill:#fc6f35"/><path d="M393.96973,134.03C386.5,141.17139,370.97889,139.146,364,136.83333c-7.19171-2.38321-18.16667-8.83333-12.39014-16.53328l3.77-2.83008A57.88646,57.88646,0,0,1,416,112Z" style="fill:#fc6f35"/><path d="M416.9502,277.83984a61.18293,61.18293,0,0,1,.43994,7.38013A63.49972,63.49972,0,0,1,392,336l-6.75-33.75C376,288,387.37417,283.34576,392,280,398.25585,275.47528,408,272,416.9502,277.83984Z" style="fill:#fc6f35"/><path d="M414.3999,150.75a46.10018,46.10018,0,0,1,7.73-.6499A46.87016,46.87016,0,0,1,464,176l-24,5.9999-15.1471,3.78671S402.375,158.75,414.3999,150.75Z" style="fill:#fc6f35"/><path d="M465.33008,249.52,464,256l-29.81006-7.45C424,240,423.01867,237.702,424,232c1.14372-6.64558,12.99349-23.35848,12.83333-24.95833L440,208A35.688,35.688,0,0,1,465.33008,249.52Z" style="fill:#fc6f35"/><path d="M64,280H24a59.09891,59.09891,0,0,1,48.24-46.71l3.33008-.55C96,240,97.9694,247.83256,96,256,94.14186,263.706,80,280,64,280Z" style="fill:#fc6f35"/><path d="M67.66992,307.46C72,304,80,296,88,312s8,16-4.55,28.55005L56,368a41.28714,41.28714,0,0,1,7.23-56.99Z" style="fill:#fc6f35"/><path d="M154.95,176.98S156.38914,208.27386,144,216c-6.7558,4.21307-40-8-49.26-9.26L72,184a76.33036,76.33036,0,0,1,69.95-11.3501Z" style="fill:#fc6f35"/><path d="M224,312l-13.60986,34.01C208,352,190.60342,353.698,184,352c-5.11359-1.31489-16-8-11.12988-16.12012L175.03,332.28A44.518,44.518,0,0,1,224,312Z" style="fill:#fc6f35"/><path d="M272,368l-32,32c-8,0-16-16-16-16s-16-24-1.45-27.92993l2.77-1.66016A33.13141,33.13141,0,0,1,272,368Z" style="fill:#fc6f35"/><path d="M337.68994,371.37012C344,384,338.70783,388.93214,336,392c-4.979,5.641-8,8-16,8v.5a86.847,86.847,0,0,1,0-64.5Z" style="fill:#fc6f35"/><path d="M440,336v24a47.99972,47.99972,0,0,1-48,48H367.99023A7.98926,7.98926,0,0,0,360,416a71.99934,71.99934,0,0,1-72,72H272a87.99482,87.99482,0,0,1-88-87.97A16.03843,16.03843,0,0,0,167.91992,384,103.989,103.989,0,0,1,64.06006,283.46C62.23,227.3999,105.7,180.81006,160.68994,176.3501c2.8501-.23,5.74-.3501,8.65015-.3501H208.3999A95.58847,95.58847,0,0,1,276,204l40.68994,40.68994A38.63134,38.63134,0,0,0,344,256c.98,0,1.9502-.04,2.91016-.10986a39.99774,39.99774,0,0,0,4.15966-79.26026A39.30881,39.30881,0,0,0,344,176H288V120h56c.21973,0,.43994,0,.66016.01a95.98723,95.98723,0,0,1,95.23,91.43994C442.46,266.3999,397.6499,312,342.64014,312h-15.04A95.62784,95.62784,0,0,1,260,284a95.588,95.588,0,0,0-67.6001-28H176.83008a41.32863,41.32863,0,0,0-8.66016.91992c-18.48,3.96-32.5498,20.32007-32.15991,39.90015A39.99445,39.99445,0,0,0,176,336c40.79,0,72.66992,38.15991,61.87988,80.72C251.39014,433.29,266.48,440,280,440a40.002,40.002,0,0,0,40-40,32.00409,32.00409,0,0,1,32-32h32a24.00619,24.00619,0,0,0,24-24v-8a16,16,0,0,1,32,0Z" style="fill:#d6323f"/><path d="M344,256c.98,0,1.9502-.04,2.91016-.10986L312,267.53V309.8999l-33.79-22.52978-4.12012,8.25A95.11363,95.11363,0,0,1,260,284a95.588,95.588,0,0,0-67.6001-28H176.83008a41.32863,41.32863,0,0,0-8.66016.91992l-12.26-4.08984L186.54,232.40991a60.89828,60.89828,0,0,1-21.16992-19.5L146.1001,184h22.57983a76.05705,76.05705,0,0,1-7.99-7.6499c2.8501-.23,5.74-.3501,8.65015-.3501H208.3999A95.58847,95.58847,0,0,1,276,204l40.68994,40.68994A38.63134,38.63134,0,0,0,344,256Z" style="fill:#ce2337"/><path d="M374.2002,128l-7.02,21.06006a77.09109,77.09109,0,0,1-16.11036,27.56982A39.30881,39.30881,0,0,0,344,176H288V120h56c.21973,0,.43994,0,.66016.01a89.11612,89.11612,0,0,1-7.0503,7.99Z" style="fill:#ce2337"/><path d="M100.2998,348.09985,88,344l3.65918,18.29517A26.99985,26.99985,0,0,0,118.13477,384H128V352h-3.667A75.99751,75.99751,0,0,1,100.2998,348.09985Z" style="fill:#fc6f35"/><path d="M168,344a75.77743,75.77743,0,0,1-33.88867,8H128l10.48,13.97314a26.99953,26.99953,0,0,0,33.67456,7.94947L184,368Z" style="fill:#fc6f35"/><path d="M352,144a61.05446,61.05446,0,0,1-30.62988,35.31006L312,184v16h24l-2.68994,4.03A44.82517,44.82517,0,0,1,296,224v8l24,16-24,8v24l-24-16-16,32-16-32-24,16V256l-24-8,24-16v-8a44.7934,44.7934,0,0,1-37.31006-19.97L176,200h24V184l-9.37012-4.68994A61.03768,61.03768,0,0,1,160,144h33.37012A6.632,6.632,0,0,0,200,137.37012v-5.82007a6.641,6.641,0,0,0-2.95-5.52A73.65463,73.65463,0,0,1,168,88l28.64014,5.73L208,96l-2.76-11.06006-.8999-3.58984A48.35919,48.35919,0,0,1,208,48l26.52,33.1499L240,88h32l5.48-6.8501L304,48a48.4172,48.4172,0,0,1,3.66016,33.3501L306.75977,84.95,304,96l11.35986-2.27L344,88a73.6559,73.6559,0,0,1-29.0498,38.03,6.62715,6.62715,0,0,0-2.16993,2.38989A6.71987,6.71987,0,0,0,312,131.55005v5.82007A6.63187,6.63187,0,0,0,318.62988,144Z" style="fill:#e04446"/><path d="M300.813,64.79028a40.3664,40.3664,0,0,1-.9126,14.62378l-3.66162,14.64551a7.99951,7.99951,0,0,0,9.33008,9.78516l24.57177-4.91455a66.00023,66.00023,0,0,1-19.62792,20.44653A14.597,14.597,0,0,0,304,131.54614v5.82764A14.64256,14.64256,0,0,0,318.626,152h20.96191a52.71923,52.71923,0,0,1-21.793,20.1582l-9.37256,4.68628A8.00016,8.00016,0,0,0,304,184v16a7.99993,7.99993,0,0,0,8,8h6.93652A36.77483,36.77483,0,0,1,296,216a7.99993,7.99993,0,0,0-8,8v8a8.00048,8.00048,0,0,0,3.5625,6.65649l10.39014,6.92652-8.48243,2.82763A8.00011,8.00011,0,0,0,288,256v9.05176l-11.5625-7.70825a8,8,0,0,0-11.59277,3.07885L256,278.11157l-8.84448-17.68921a8.00011,8.00011,0,0,0-11.593-3.07885L224,265.05176V256a7.9998,7.9998,0,0,0-5.47021-7.58936l-8.48218-2.82763,10.38989-6.92652A8.00048,8.00048,0,0,0,224,232v-8a8.00009,8.00009,0,0,0-8-8,36.77315,36.77315,0,0,1-22.93628-8H200a8.00009,8.00009,0,0,0,8-8V184a8.00016,8.00016,0,0,0-4.42236-7.15552l-9.37256-4.68628A52.72214,52.72214,0,0,1,172.41162,152h20.96216A14.64277,14.64277,0,0,0,208,137.37378v-5.82764a14.59659,14.59659,0,0,0-6.51294-12.16943,66.00128,66.00128,0,0,1-19.62768-20.44629l24.57177,4.91431a8.00012,8.00012,0,0,0,9.33008-9.78492l-3.66162-14.64575a40.35509,40.35509,0,0,1-.91235-14.62378l22.56567,28.20728A8.00063,8.00063,0,0,0,240,96h32a8.001,8.001,0,0,0,6.24707-3.00244L300.813,64.79028M304,48,272,88H240L208,48a48.35709,48.35709,0,0,0-3.66138,33.35449L208,96l-40-8a73.73366,73.73366,0,0,0,29.04932,38.033A6.626,6.626,0,0,1,200,131.54614v5.82764A6.62608,6.62608,0,0,1,193.37378,144H160a61.07582,61.07582,0,0,0,30.62744,35.31372L200,184v16H176l2.68726,4.03076A44.84449,44.84449,0,0,0,216,224v8l-24,16,24,8v24l24-16,16,32,16-32,24,16V256l24-8-24-16v-8a44.84558,44.84558,0,0,0,37.313-19.96924L336,200H312V184l9.37256-4.68628A61.07585,61.07585,0,0,0,352,144H318.626A6.62619,6.62619,0,0,1,312,137.37378v-5.82764a6.62661,6.62661,0,0,1,2.95068-5.51318A73.73267,73.73267,0,0,0,344,88l-40,8,3.66162-14.64551A48.35831,48.35831,0,0,0,304,48Z" style="fill:#fc6f35"/><path d="M272,168a23.90134,23.90134,0,0,0-16,6.13086A23.98433,23.98433,0,0,0,216,192h16a8,8,0,0,1,16,0h16a8,8,0,0,1,16,0h16A24.0275,24.0275,0,0,0,272,168Z" style="fill:#d6323f"/><circle cx="240" cy="160" r="8" style="fill:#fdca77"/><circle cx="272" cy="160" r="8" style="fill:#fdca77"/><path d="M202.34277,66.34277a30.48564,30.48564,0,0,0-7.60693,12.58155A49.55283,49.55283,0,0,1,184,48H168a65.5138,65.5138,0,0,0,19.31348,46.62793l15.02929,15.0293,11.31446-11.31446a14.64326,14.64326,0,0,1,0-20.68554Z" style="fill:#fdca77"/><path d="M328,48a49.55283,49.55283,0,0,1-10.73584,30.92432,30.483,30.483,0,0,0-7.60693-12.58155L298.34277,77.65723a14.64326,14.64326,0,0,1,0,20.68554l11.31446,11.31446,15.02929-15.0293A65.5138,65.5138,0,0,0,344,48Z" style="fill:#fdca77"/><path d="M290.34277,122.34277l-4.68652,4.68653A19.1897,19.1897,0,0,0,280,140.68652,3.31712,3.31712,0,0,1,276.68652,144h-8a3.33372,3.33372,0,0,1-2.34277-.9707l-4.68652-4.68653L256,144l-5.65723-5.65723-4.68652,4.68653a3.33372,3.33372,0,0,1-2.34277.9707h-8A3.31712,3.31712,0,0,1,232,140.68652a19.1897,19.1897,0,0,0-5.65625-13.65722l-4.68652-4.68653-11.31446,11.31446,4.68653,4.68652A3.33372,3.33372,0,0,1,216,140.68652,19.33544,19.33544,0,0,0,235.31348,160h8A19.1599,19.1599,0,0,0,256,155.22412,19.15942,19.15942,0,0,0,268.68652,160h8A19.33544,19.33544,0,0,0,296,140.68652a3.33372,3.33372,0,0,1,.9707-2.34277l4.68653-4.68652Z" style="fill:#fc6f35"/><path d="M136,200a46.32144,46.32144,0,0,1-32.9707-13.65625l-4.68653-4.68652,11.31446-11.31446,4.68652,4.68653a30.62563,30.62563,0,0,0,43.3125,0l1.37305-1.37305A46.32144,46.32144,0,0,1,192,160h16v16H192a30.42341,30.42341,0,0,0-21.65625,8.9707l-1.37305,1.37305A46.32144,46.32144,0,0,1,136,200Z" style="fill:#fdca77"/><path d="M376,200a46.32144,46.32144,0,0,1-32.9707-13.65625l-1.373-1.37305A30.42341,30.42341,0,0,0,320,176H304V160h16a46.32144,46.32144,0,0,1,32.9707,13.65625l1.373,1.37305a30.62563,30.62563,0,0,0,43.3125,0l4.68652-4.68653,11.31446,11.31446-4.68653,4.68652A46.32144,46.32144,0,0,1,376,200Z" style="fill:#fdca77"/><rect x="240" y="200" width="32" height="40" style="fill:#ce2337"/><path d="M328,392c0,35.3501-20.6499,64-56,64s-56-28.6499-56-64c0-13.25,2.8999-25.55,8.37988-35.76A24.00716,24.00716,0,0,0,248,376a32.01137,32.01137,0,0,0,27.79-47.87988C308.81982,330.08984,328,357.92993,328,392Z" style="fill:#fdca77"/><path d="M296,416a24.0086,24.0086,0,1,1-11.50977-20.49A24.00619,24.00619,0,0,1,296,416Z" style="fill:#fc6f35"/><path d="M296,416a23.99749,23.99749,0,0,1-44.49,12.49,23.99518,23.99518,0,0,0,32.98022-32.98A23.984,23.984,0,0,1,296,416Z" style="fill:#de5e1d"/><polygon points="232 200 240 208 248 200 232 200" style="fill:#ffefd6"/><polygon points="264 200 272 208 280 200 264 200" style="fill:#ffefd6"/><polygon points="280 240 272 232 264 240 280 240" style="fill:#ffefd6"/><polygon points="248 240 240 232 232 240 248 240" style="fill:#ffefd6"/><path d="M280,192a8,8,0,0,0-16,0Z" style="fill:#68737f"/><path d="M248,192a8,8,0,0,0-16,0Z" style="fill:#68737f"/><path d="M260,128h-8a20.02222,20.02222,0,0,1-20-20.01438A3.99323,3.99323,0,0,0,228,104h-6.12761a5.94857,5.94857,0,0,0-3.82871,1.3039A5.63387,5.63387,0,0,0,216,109.65723V112a8,8,0,0,1-8,8h0a8,8,0,0,1-8-8v-1.856a22.28377,22.28377,0,0,1,5.42745-14.82995A21.54915,21.54915,0,0,1,221.65723,88H228a20.02222,20.02222,0,0,1,20,20.01438A3.99322,3.99322,0,0,0,252,112h8a3.99322,3.99322,0,0,0,4-3.98562A20.02222,20.02222,0,0,1,284,88h5.85593a22.28377,22.28377,0,0,1,14.82995,5.42745A21.54915,21.54915,0,0,1,312,109.65723V112a8,8,0,0,1-8,8h0a8,8,0,0,1-8-8V109.8724a5.94854,5.94854,0,0,0-1.3039-3.82872A5.63389,5.63389,0,0,0,290.34277,104H284a3.99321,3.99321,0,0,0-4,3.98561A20.02223,20.02223,0,0,1,260,128Z" style="fill:#e04446"/><path d="M289.83008,88H284a20,20,0,0,0-20,20v4a8,8,0,0,0,8,8h0a8,8,0,0,0,8-8v-4a19.98838,19.98838,0,0,1,15.14014-19.3999A23.5527,23.5527,0,0,0,289.83008,88Z" style="fill:#e5585a"/><path d="M228,88h-6.34009a21.54416,21.54416,0,0,0-16.23,7.31006A22.25747,22.25747,0,0,0,200,110.14014V112a8,8,0,0,0,8,8h0a8,8,0,0,0,8-8v-1.85987a22.25747,22.25747,0,0,1,5.42993-14.83008,21.4607,21.4607,0,0,1,11.29-6.74A19.303,19.303,0,0,0,228,88Z" style="fill:#e5585a"/></g></svg>
